<?xml version="1.0" encoding="UTF-8" standalone="no"?>
<!-- Created with Inkscape (http://www.inkscape.org/) -->
<svg
   xmlns:svg="http://www.w3.org/2000/svg"
   xmlns="http://www.w3.org/2000/svg"
   version="1.0"
   width="64"
   height="64"
   id="svg2">
  <defs
     id="defs4" />
  <path
     d="M 4.75,8.25 C 4.75,10.252032 3.8265873,11.875 2.6875,11.875 C 1.5484127,11.875 0.625,10.252032 0.625,8.25 C 0.625,6.2479678 1.5484127,4.625 2.6875,4.625 C 3.8265873,4.625 4.75,6.2479678 4.75,8.25 L 4.75,8.25 z "
     style="fill:#ff002a;fill-opacity:1;stroke:#000000;stroke-width:1;stroke-linecap:round;stroke-linejoin:round;stroke-miterlimit:4;stroke-dasharray:none;stroke-opacity:1"
     id="path2184" />
  <path
     d="M 9.5,4.75 C 9.5,6.7520322 8.5765873,8.375 7.4375,8.375 C 6.2984127,8.375 5.375,6.7520322 5.375,4.75 C 5.375,2.7479678 6.2984127,1.125 7.4375,1.125 C 8.5765873,1.125 9.5,2.7479678 9.5,4.75 z "
     style="fill:#ff002a;fill-opacity:1;stroke:#000000;stroke-width:1;stroke-linecap:round;stroke-linejoin:round;stroke-miterlimit:4;stroke-dasharray:none;stroke-opacity:1"
     id="path2186" />
  <path
     d="M 17.375,17.144607 C 17.5,22.637107 13.301,17.332107 10.4375,17.332107 C 7.574,17.332107 3,22.387107 3,17.144607 C 3,14.902107 7.324,11.082107 10.1875,11.082107 C 13.051,11.082107 17.375,14.902107 17.375,17.144607 z "
     style="fill:#ff002a;fill-opacity:1;stroke:#000000;stroke-width:1;stroke-linecap:round;stroke-linejoin:round;stroke-miterlimit:4;stroke-opacity:1"
     id="path2192" />
  <path
     d="M 14.625,4.75 C 14.625,6.7520322 13.701587,8.375 12.5625,8.375 C 11.423413,8.375 10.5,6.7520322 10.5,4.75 C 10.5,2.7479678 11.423413,1.125 12.5625,1.125 C 13.701587,1.125 14.625,2.7479678 14.625,4.75 z "
     style="fill:#ff002a;fill-opacity:1;stroke:#000000;stroke-width:1;stroke-linecap:round;stroke-linejoin:round;stroke-miterlimit:4;stroke-dasharray:none;stroke-opacity:1"
     id="path3167" />
  <path
     d="M 19.375,8.25 C 19.375,10.252032 18.451587,11.875 17.3125,11.875 C 16.173413,11.875 15.25,10.252032 15.25,8.25 C 15.25,6.2479678 16.173413,4.625 17.3125,4.625 C 18.451587,4.625 19.375,6.2479678 19.375,8.25 z "
     style="fill:#ff002a;fill-opacity:1;stroke:#000000;stroke-width:1;stroke-linecap:round;stroke-linejoin:round;stroke-miterlimit:4;stroke-dasharray:none;stroke-opacity:1"
     id="path3169" />
</svg>
