<?xml version="1.0" encoding="UTF-8" standalone="no"?>
<!-- Created with Inkscape (http://www.inkscape.org/) -->
<svg
   xmlns:svg="http://www.w3.org/2000/svg"
   xmlns="http://www.w3.org/2000/svg"
   version="1.0"
   width="64"
   height="64"
   id="svg2">
  <defs
     id="defs4" />
  <path
     d="M 23.792421,29.264395 C 22.000764,28.73481 22.000679,25.873662 20.755732,25.647298 C 20.244329,26.121348 19.915579,26.783842 19.244933,27.01864 C 18.907804,27.972342 19.988208,28.751386 20.403806,29.514705 C 21.15545,30.238813 22.980573,30.837142 24.155287,31.623039"
     style="fill:#f2c7ce;fill-opacity:1;stroke:#000000;stroke-width:1;stroke-linecap:round;stroke-linejoin:round;stroke-miterlimit:4;stroke-dasharray:none;stroke-opacity:1"
     id="path3180" />
  <path
     d="M 30.057204,5.0597677 C 27.805394,5.3551265 24.819967,3.4579923 23.192015,5.8590943"
     style="fill:none;fill-opacity:1;stroke:#000000;stroke-width:1;stroke-linecap:round;stroke-linejoin:round;stroke-miterlimit:4;stroke-dasharray:none;stroke-opacity:1"
     id="path3207" />
  <path
     d="M 34.481566,4.8558014 C 35.890862,4.8319296 37.43244,4.3352694 38.725015,5.1386976"
     style="fill:none;fill-opacity:1;stroke:#000000;stroke-width:1;stroke-linecap:round;stroke-linejoin:round;stroke-miterlimit:4;stroke-dasharray:none;stroke-opacity:1"
     id="path3209" />
  <path
     d="M 29.955221,6.8360776 C 27.694982,7.7782007 24.382987,5.1584941 22.882806,7.9676633"
     style="fill:none;fill-opacity:1;stroke:#000000;stroke-width:1;stroke-linecap:round;stroke-linejoin:round;stroke-miterlimit:4;stroke-dasharray:none;stroke-opacity:1"
     id="path3211" />
  <path
     d="M 34.481566,6.8360776 C 36.07057,7.1419011 38.072138,6.2235098 39.290809,7.6847666"
     style="fill:none;fill-opacity:1;stroke:#000000;stroke-width:1;stroke-linecap:round;stroke-linejoin:round;stroke-miterlimit:4;stroke-dasharray:none;stroke-opacity:1"
     id="path3213" />
  <path
     d="M 30.521014,36.823112 C 29.369956,42.526557 30.275329,48.356435 29.970484,54.115484 C 30.211217,57.060734 29.559057,60.160022 30.746645,62.967046 C 31.741854,63.765625 31.389645,61.643332 31.572962,61.049266 C 31.741826,58.02804 31.363807,54.990112 31.784477,51.980163 C 32.049866,49.146808 31.986873,46.300535 31.985448,43.459547 C 32.011705,41.176055 32.114236,38.87331 32.655892,36.645456"
     style="fill:#f2c7ce;fill-opacity:1;stroke:#000000;stroke-width:1;stroke-linecap:round;stroke-linejoin:round;stroke-miterlimit:4;stroke-dasharray:none;stroke-opacity:1"
     id="path3221" />
  <path
     d="M 31.086808,2.8755252 C 34.752735,3.6221674 34.619162,8.0743873 35.355587,10.935798 C 36.942911,14.144147 39.351976,18.798285 39.316446,22.786146 C 39.719597,26.371212 39.561884,27.214304 38.823756,30.648894 C 37.607977,33.95157 34.51031,37.674599 30.618222,36.934881 C 25.703252,35.910526 22.918065,30.52486 23.557296,25.78778 C 23.533226,21.892323 23.867013,17.55208 26.680777,14.569562 C 28.392196,10.771968 27.747758,5.8713506 31.086808,2.8755252 z "
     style="fill:#a2680f;fill-opacity:1;stroke:#000000;stroke-width:1;stroke-linecap:round;stroke-linejoin:round;stroke-miterlimit:4;stroke-dasharray:none;stroke-opacity:1"
     id="path3203" />
  <path
     d="M 30.781005,1.0351178 C 28.03766,2.1998719 32.178973,6.0064414 33.129089,3.1131708 C 33.722119,1.7702558 32.024051,0.37705013 30.781005,1.0351178 z "
     style="fill:#f2c7ce;fill-opacity:1;stroke:#000000;stroke-width:1;stroke-linecap:round;stroke-linejoin:round;stroke-miterlimit:4;stroke-dasharray:none;stroke-opacity:1"
     id="path3201" />
  <path
     d="M 27.616377,11.811448 C 25.18787,12.437002 21.547486,11.627687 20.290403,14.374823 C 20.112411,18.195926 26.593168,18.535345 28.407104,15.777576 C 29.38291,14.565829 29.267189,12.372045 27.616377,11.811448 z "
     style="fill:#c7bb89;fill-opacity:1;stroke:#000000;stroke-width:1;stroke-linecap:round;stroke-linejoin:round;stroke-miterlimit:4;stroke-dasharray:none;stroke-opacity:1"
     id="path3215" />
  <path
     d="M 34.66696,14.953342 C 36.439549,18.206242 41.754663,21.160335 42.357414,16.881748 C 42.874225,10.880106 33.919293,9.1963771 34.66696,14.953342 z "
     style="fill:#c7bb89;fill-opacity:1;stroke:#000000;stroke-width:1;stroke-linecap:round;stroke-linejoin:round;stroke-miterlimit:4;stroke-dasharray:none;stroke-opacity:1"
     id="path3217" />
  <path
     d="M 38.579296,32.076625 C 39.566933,31.295147 40.80101,30.887987 41.720158,30.00672 C 42.309831,29.386212 44.043868,28.120882 42.978585,27.36033 C 42.181178,27.479424 42.087027,25.83176 41.127023,26.696119 C 40.523023,27.319289 40.038545,28.05115 39.486467,28.720094"
     style="fill:#f2c7ce;fill-opacity:1;stroke:#000000;stroke-width:1;stroke-linecap:round;stroke-linejoin:round;stroke-miterlimit:4;stroke-dasharray:none;stroke-opacity:1"
     id="path4151" />
  <path
     d="M 30.056796,9.1050467 C 29.2908,9.4526906 28.976375,10.010816 29.631184,10.665624 C 30.334561,11.369002 30.76615,10.222238 30.76615,9.6725288 C 30.76615,9.3697239 30.293248,9.2942074 30.056796,9.1050467 z "
     style="fill:#000000;fill-opacity:1;stroke:#000000;stroke-width:1;stroke-linecap:round;stroke-linejoin:round;stroke-miterlimit:4;stroke-dasharray:none;stroke-opacity:1"
     id="path2188" />
  <path
     d="M 33.036082,8.9631759 C 33.036082,8.4538439 32.240818,9.9263227 32.468598,10.381883 C 32.771053,10.986793 33.872406,10.635824 33.461694,9.8143996 C 33.431785,9.7545821 33.367113,9.7198198 33.319823,9.6725288 C 33.139747,9.4924533 33.130662,9.1996265 33.036082,8.9631759 z "
     style="fill:#000000;fill-opacity:1;stroke:#000000;stroke-width:1;stroke-linecap:round;stroke-linejoin:round;stroke-miterlimit:4;stroke-dasharray:none;stroke-opacity:1"
     id="path2190" />
</svg>
