<?xml version="1.0" encoding="UTF-8" standalone="no"?>
<!-- Created with Inkscape (http://www.inkscape.org/) -->
<svg
   xmlns:svg="http://www.w3.org/2000/svg"
   xmlns="http://www.w3.org/2000/svg"
   version="1.0"
   width="64"
   height="64"
   id="svg2">
  <defs
     id="defs4" />
  <path
     d="M 48.75,8.25 C 48.75,10.252032 47.826587,11.875 46.6875,11.875 C 45.548413,11.875 44.625,10.252032 44.625,8.25 C 44.625,6.2479678 45.548413,4.625 46.6875,4.625 C 47.826587,4.625 48.75,6.2479678 48.75,8.25 L 48.75,8.25 z "
     style="fill:#1180ff;fill-opacity:1;stroke:#000000;stroke-width:1;stroke-linecap:round;stroke-linejoin:round;stroke-miterlimit:4;stroke-dasharray:none;stroke-opacity:1"
     id="path2184" />
  <path
     d="M 53.5,4.75 C 53.5,6.7520322 52.576587,8.375 51.4375,8.375 C 50.298413,8.375 49.375,6.7520322 49.375,4.75 C 49.375,2.7479678 50.298413,1.125 51.4375,1.125 C 52.576587,1.125 53.5,2.7479678 53.5,4.75 z "
     style="fill:#1180ff;fill-opacity:1;stroke:#000000;stroke-width:1;stroke-linecap:round;stroke-linejoin:round;stroke-miterlimit:4;stroke-dasharray:none;stroke-opacity:1"
     id="path2186" />
  <path
     d="M 61.375,17.144607 C 61.5,22.637107 57.301,17.332107 54.4375,17.332107 C 51.574,17.332107 47,22.387107 47,17.144607 C 47,14.902107 51.324,11.082107 54.1875,11.082107 C 57.051,11.082107 61.375,14.902107 61.375,17.144607 z "
     style="fill:#1180ff;fill-opacity:1;stroke:#000000;stroke-width:1;stroke-linecap:round;stroke-linejoin:round;stroke-miterlimit:4;stroke-opacity:1"
     id="path2192" />
  <path
     d="M 58.625,4.75 C 58.625,6.7520322 57.701587,8.375 56.5625,8.375 C 55.423413,8.375 54.5,6.7520322 54.5,4.75 C 54.5,2.7479678 55.423413,1.125 56.5625,1.125 C 57.701587,1.125 58.625,2.7479678 58.625,4.75 z "
     style="fill:#1180ff;fill-opacity:1;stroke:#000000;stroke-width:1;stroke-linecap:round;stroke-linejoin:round;stroke-miterlimit:4;stroke-dasharray:none;stroke-opacity:1"
     id="path3167" />
  <path
     d="M 63.375,8.25 C 63.375,10.252032 62.451587,11.875 61.3125,11.875 C 60.173413,11.875 59.25,10.252032 59.25,8.25 C 59.25,6.2479678 60.173413,4.625 61.3125,4.625 C 62.451587,4.625 63.375,6.2479678 63.375,8.25 z "
     style="fill:#1180ff;fill-opacity:1;stroke:#000000;stroke-width:1;stroke-linecap:round;stroke-linejoin:round;stroke-miterlimit:4;stroke-dasharray:none;stroke-opacity:1"
     id="path3169" />
</svg>
