<?xml version="1.0" encoding="UTF-8" standalone="no"?>
<!-- Created with Inkscape (http://www.inkscape.org/) -->
<svg
   xmlns:svg="http://www.w3.org/2000/svg"
   xmlns="http://www.w3.org/2000/svg"
   version="1.0"
   width="64"
   height="64"
   id="svg2">
  <defs
     id="defs4" />
  <path
     d="M 17.88512,12.103454 C 27.063044,9.2505722 36.896477,9.2904838 46.050939,12.217782 L 31.786724,56.825903 L 17.88512,12.103454 z "
     style="fill:#f8d651;fill-opacity:1;stroke:#000000;stroke-width:1;stroke-linecap:round;stroke-linejoin:round;stroke-miterlimit:4;stroke-dasharray:none;stroke-opacity:1"
     id="path2190" />
  <path
     d="M 31.792294,17.749999 C 31.792294,20.120566 30.094427,22.042291 28.000002,22.042291 C 25.905576,22.042291 24.207709,20.120566 24.207709,17.749999 C 24.207709,15.379432 25.905576,13.457707 28.000002,13.457707 C 30.094427,13.457707 31.792294,15.379432 31.792294,17.749999 z "
     style="fill:#d9af08;fill-opacity:1;stroke:#000000;stroke-width:1;stroke-linecap:round;stroke-linejoin:round;stroke-miterlimit:4;stroke-dasharray:none;stroke-opacity:1"
     id="path3165" />
  <path
     d="M 30.228851,28.75 C 30.228851,30.119031 29.007103,31.228849 27.500002,31.228849 C 25.9929,31.228849 24.771152,30.119031 24.771152,28.75 C 24.771152,27.380969 25.9929,26.27115 27.500002,26.27115 C 29.007103,26.27115 30.228851,27.380969 30.228851,28.75 z "
     style="fill:#d9af08;fill-opacity:1;stroke:#000000;stroke-width:1;stroke-linecap:round;stroke-linejoin:round;stroke-miterlimit:4;stroke-dasharray:none;stroke-opacity:1"
     id="path3167" />
  <path
     d="M 34.25,36.25 C 34.25,37.630712 33.466498,38.75 32.5,38.75 C 31.533502,38.75 30.75,37.630712 30.75,36.25 C 30.75,34.869288 31.533502,33.75 32.5,33.75 C 33.466498,33.75 34.25,34.869288 34.25,36.25 z "
     style="fill:#d9af08;fill-opacity:1;stroke:#000000;stroke-width:1;stroke-linecap:round;stroke-linejoin:round;stroke-miterlimit:4;stroke-dasharray:none;stroke-opacity:1"
     id="path3173" />
  <path
     d="M 32.940512,46.000002 C 32.940512,47.471318 31.971632,48.664055 30.776458,48.664055 C 29.581285,48.664055 28.612405,47.471318 28.612405,46.000002 C 28.612405,44.528686 29.581285,43.335948 30.776458,43.335948 C 31.971632,43.335948 32.940512,44.528686 32.940512,46.000002 z "
     style="fill:#d9af08;fill-opacity:1;stroke:#000000;stroke-width:1;stroke-linecap:round;stroke-linejoin:round;stroke-miterlimit:4;stroke-dasharray:none;stroke-opacity:1"
     id="path3175" />
  <path
     d="M 39.82565,25.999999 C 39.82565,28.388989 38.672492,30.325648 37.250001,30.325648 C 35.82751,30.325648 34.674352,28.388989 34.674352,25.999999 C 34.674352,23.611009 35.82751,21.67435 37.250001,21.67435 C 38.672492,21.67435 39.82565,23.611009 39.82565,25.999999 z "
     style="fill:#d9af08;fill-opacity:1;stroke:#000000;stroke-width:1;stroke-linecap:round;stroke-linejoin:round;stroke-miterlimit:4;stroke-dasharray:none;stroke-opacity:1"
     id="path4146" />
  <path
     d="M 42.484437,15.375 C 42.484437,16.954222 40.924401,18.234435 39.000002,18.234435 C 37.075602,18.234435 35.515566,16.954222 35.515566,15.375 C 35.515566,13.795777 37.075602,12.515564 39.000002,12.515564 C 40.924401,12.515564 42.484437,13.795777 42.484437,15.375 z "
     style="fill:#d9af08;fill-opacity:1;stroke:#000000;stroke-width:1;stroke-linecap:round;stroke-linejoin:round;stroke-miterlimit:4;stroke-dasharray:none;stroke-opacity:1"
     id="path4148" />
</svg>
