<?xml version="1.0" encoding="UTF-8" standalone="no"?>
<!-- Created with Inkscape (http://www.inkscape.org/) -->
<svg
   xmlns:svg="http://www.w3.org/2000/svg"
   xmlns="http://www.w3.org/2000/svg"
   version="1.0"
   width="64"
   height="64"
   id="svg2">
  <defs
     id="defs4" />
  <path
     d="M 23.794066,16.751977 C 27.15377,14.228352 26.832825,7.8218824 30.530365,6.8725098 C 35.21962,6.9752294 36.477421,13.887583 39.409914,17.239973"
     style="fill:#e3c334;fill-opacity:1;stroke:#000000;stroke-width:1;stroke-linecap:round;stroke-linejoin:round;stroke-miterlimit:4;stroke-dasharray:none;stroke-opacity:1"
     id="path3156" />
  <path
     d="M 44.458787,20.72969 C 44.329093,17.974242 43.301648,15.306618 43.506743,12.527925 C 43.917651,11.555855 45.461572,11.77371 45.839938,12.665181 C 46.473943,13.510001 46.614755,14.628205 47.309506,15.435101 C 48.197557,15.95608 49.274584,15.198108 49.592369,14.340097 C 49.910214,13.665603 50.823583,12.963051 51.545005,13.482315 C 52.37504,14.317072 52.121417,15.870965 53.270139,16.449344 C 54.145048,16.789318 55.128201,15.419163 55.865322,16.332866 C 56.646742,17.38301 56.255694,18.787632 55.875771,19.915656 C 55.091021,22.257168 54.018927,24.488555 53.165794,26.804281 C 52.90854,27.402703 52.613478,27.985821 52.266714,28.537614"
     style="fill:#e3c334;fill-opacity:1;stroke:#000000;stroke-width:1;stroke-linecap:round;stroke-linejoin:round;stroke-miterlimit:4;stroke-dasharray:none;stroke-opacity:1"
     id="path3162" />
  <path
     d="M 13.396014,26.745029 C 11.520809,26.14307 10.354492,24.396211 9.5084754,22.722617 C 8.8381221,21.214291 7.5694632,20.074851 6.8292396,18.613181 C 6.4557228,17.474739 6.8239288,15.891943 8.0621255,15.473769 C 9.0371194,15.290861 9.8548124,16.00698 10.530673,16.605886 C 11.41488,17.080668 12.451677,15.788047 11.836215,15.014067 C 11.677458,13.965125 12.924392,12.984983 13.894209,13.46674 C 14.984537,13.635532 15.400739,14.923986 16.451146,15.169362 C 17.36877,15.183543 17.770111,14.240183 18.193481,13.588608 C 18.546795,12.790597 19.801585,12.660624 20.150595,13.534072 C 20.418694,14.783491 20.164621,16.076941 20.242748,17.345274 C 20.250496,18.943208 20.229697,20.637366 20.960393,22.098141 C 21.031006,22.192406 21.11234,22.278889 21.203939,22.353069"
     style="fill:#e3c334;fill-opacity:1;stroke:#000000;stroke-width:1;stroke-linecap:round;stroke-linejoin:round;stroke-miterlimit:4;stroke-dasharray:none;stroke-opacity:1"
     id="path3160" />
  <path
     d="M 44.17273,17.825668 C 41.670512,16.813426 23.259335,15.875328 14.074398,20.82367 C 10.296331,23.032088 7.7503924,26.478489 6.8819755,30.222686 C 6.0135587,33.966885 6.8226639,38.00888 9.7546854,41.408491 C 30.262738,39.967361 36.332577,39.532331 57.221798,35.506555 C 58.628523,29.893615 54.921264,23.754054 44.17273,17.825668 z "
     style="fill:#ffffff;fill-opacity:1;stroke:#000000;stroke-width:1;stroke-linecap:round;stroke-linejoin:round;stroke-miterlimit:4;stroke-dasharray:none;stroke-opacity:1"
     id="path3158" />
  <path
     d="M 2.5626582,16.511063 C 1.287977,16.700493 0.9323033,20.970203 3.1408793,33.415527 C 3.998486,37.750087 6.7648927,40.458678 8.6509863,39.946024 C 8.9805774,40.446887 9.3270864,40.930513 9.7394024,41.408583 C 14.669217,47.04705 23.171081,47.418855 28.140439,53.007018 C 29.002496,55.123447 31.544696,58.358686 34.024689,56.64641 C 36.225122,54.72613 36.49692,50.982657 39.602822,50.013874 C 46.742545,47.202896 52.153496,43.729393 55.078739,39.843985 C 56.960165,40.718639 59.961121,37.963493 60.860951,33.415527 C 65.572581,6.8655032 58.596205,17.543642 55.997091,25.558522 C 55.747866,26.029688 55.496155,26.424549 55.248804,26.78299 C 37.650855,34.820043 26.232283,35.300804 8.4469083,26.340821 C 8.2957153,26.097507 8.156115,25.844703 8.0047392,25.558522 C 6.6239603,21.300617 4.0072967,16.296375 2.5626582,16.511063 z "
     style="fill:#000000;fill-opacity:1;stroke:#000000;stroke-width:1;stroke-linecap:round;stroke-linejoin:round;stroke-miterlimit:4;stroke-dasharray:none;stroke-opacity:1"
     id="path9669" />
  <path
     d="M 29.908438,15.813329 C 23.698931,14.892215 17.360291,20.113376 17.072073,26.383618 C 15.758414,33.126695 19.678391,40.517502 26.046143,43.134532 C 33.174885,44.788053 41.432085,42.425622 45.850049,36.402023 C 49.527979,30.886148 48.456971,22.427458 42.883267,18.556942 C 39.090033,16.008236 34.341232,15.710831 29.908438,15.813329 z "
     style="fill:#000000;fill-opacity:1;stroke:#000000;stroke-width:1;stroke-linecap:round;stroke-linejoin:round;stroke-miterlimit:4;stroke-dasharray:none;stroke-opacity:1"
     id="path3152" />
  <path
     d="M 30.609168,18.660292 C 30.610011,19.882689 29.016111,20.873916 27.049647,20.873916 C 25.083181,20.873916 23.489282,19.882689 23.490124,18.660292 C 23.489282,17.437895 25.083181,16.446668 27.049647,16.446668 C 29.016111,16.446668 30.610011,17.437895 30.609168,18.660292 L 30.609168,18.660292 z "
     style="fill:#ffffff;fill-opacity:1;stroke:#000000;stroke-width:1;stroke-linecap:round;stroke-linejoin:round;stroke-miterlimit:4;stroke-dasharray:none;stroke-opacity:1"
     id="path4631" />
  <path
     d="M 39.07506,18.564089 C 39.07506,19.839248 37.567551,20.872968 35.707944,20.872968 C 33.848337,20.872968 32.340828,19.839248 32.340828,18.564089 C 32.340828,17.28893 33.848337,16.25521 35.707944,16.25521 C 37.567551,16.25521 39.07506,17.28893 39.07506,18.564089 z "
     style="fill:#ffffff;fill-opacity:1;stroke:#000000;stroke-width:1;stroke-linecap:round;stroke-linejoin:round;stroke-miterlimit:4;stroke-dasharray:none;stroke-opacity:1"
     id="path4633" />
  <path
     d="M 29.499413,17.557373 C 29.499413,17.982425 28.336477,18.326999 26.901924,18.326999 C 25.467369,18.326999 24.304434,17.982425 24.304434,17.557373 C 24.304434,17.13232 25.467369,16.787746 26.901924,16.787746 C 28.336477,16.787746 29.499413,17.13232 29.499413,17.557373 L 29.499413,17.557373 z "
     style="fill:#000000;fill-opacity:1;stroke:#000000;stroke-width:1;stroke-linecap:round;stroke-linejoin:round;stroke-miterlimit:4;stroke-dasharray:none;stroke-opacity:1"
     id="path4635" />
  <path
     d="M 38.101356,17.228914 C 38.101356,17.653966 36.981492,17.998541 35.600069,17.998541 C 34.218647,17.998541 33.098783,17.653966 33.098783,17.228914 C 33.098783,16.803861 34.218647,16.459287 35.600069,16.459287 C 36.981492,16.459287 38.101356,16.803861 38.101356,17.228914 L 38.101356,17.228914 z "
     style="fill:#000000;fill-opacity:1;stroke:#000000;stroke-width:1;stroke-linecap:round;stroke-linejoin:round;stroke-miterlimit:4;stroke-dasharray:none;stroke-opacity:1"
     id="path4637" />
  <path
     d="M 30.228815,14.148972 C 30.231896,13.935303 29.232306,12.702442 28.991378,12.381205"
     style="fill:none;fill-opacity:1;stroke:#000000;stroke-width:1;stroke-linecap:round;stroke-linejoin:round;stroke-miterlimit:4;stroke-dasharray:none;stroke-opacity:1"
     id="path10694" />
  <path
     d="M 32.350136,14.148972 C 32.63182,14.131195 33.294182,13.024438 33.410796,12.557982"
     style="fill:none;fill-opacity:1;stroke:#000000;stroke-width:1;stroke-linecap:round;stroke-linejoin:round;stroke-miterlimit:4;stroke-dasharray:none;stroke-opacity:1"
     id="path11665" />
</svg>
