<?xml version="1.0" encoding="UTF-8" standalone="no"?>
<!-- Created with Inkscape (http://www.inkscape.org/) -->
<svg
   xmlns:svg="http://www.w3.org/2000/svg"
   xmlns="http://www.w3.org/2000/svg"
   version="1.0"
   width="64"
   height="64"
   id="svg2">
  <defs
     id="defs4" />
  <path
     d="M 30.727035,39.263917 C 34.048898,41.706393 34.936776,42.413996 37.138014,43.418912 C 37.610981,41.900928 37.070407,39.912314 34.394437,39.399747"
     style="fill:#c9c9c9;fill-opacity:1;stroke:#000000;stroke-width:1.08663774;stroke-linecap:round;stroke-linejoin:round;stroke-miterlimit:4;stroke-dasharray:none;stroke-opacity:1"
     id="path2184" />
  <path
     d="M 26.433716,25.52933 C 27.166171,23.2196 29.08938,21.348176 31.389893,20.612397 C 32.522074,20.441902 33.676967,20.984073 34.404178,21.840937 C 35.322124,22.555438 36.316008,23.162766 37.295061,23.788072 C 37.633273,24.339962 37.504051,25.097146 37.068287,25.558178 C 37.015219,25.675543 36.995503,25.810942 37.028434,25.936819"
     style="fill:#c9c9c9;fill-opacity:1;stroke:#000000;stroke-width:1.08663774;stroke-linecap:round;stroke-linejoin:round;stroke-miterlimit:4;stroke-dasharray:none;stroke-opacity:1"
     id="path2180" />
  <path
     d="M 49.888022,33.608261 C 50.17332,34.239149 50.805705,34.615789 51.130763,35.220299 C 50.239044,36.461757 48.754179,37.006622 47.45169,37.693991 C 46.431496,38.219049 45.469294,38.85356 44.570281,39.565682 C 42.966661,39.40051 42.743144,37.763449 42.211622,36.389833"
     style="fill:#c9c9c9;fill-opacity:1;stroke:#000000;stroke-width:1.08663774;stroke-linecap:round;stroke-linejoin:round;stroke-miterlimit:4;stroke-dasharray:none;stroke-opacity:1"
     id="path2182" />
  <path
     d="M 3.3528661,31.335761 C 3.3420891,30.877051 3.1962571,30.871777 4.0208973,30.315859 C 9.3597051,27.022626 15.693869,25.901937 21.874028,25.655852 C 26.798063,25.058705 31.738516,25.6598 36.611075,26.380517 C 42.060848,26.905334 47.691749,27.272301 53.049042,25.900816 C 55.053492,25.437617 56.847692,24.488219 58.582142,23.43471 C 60.119571,22.303323 60.891867,23.732604 59.579698,24.809378 C 57.957143,27.076018 57.656201,30.566566 59.880376,32.560481 C 60.709324,33.523465 63.971037,35.61423 62.209794,36.447003 C 58.58396,35.005899 54.809097,33.554494 50.859146,33.491715 C 47.878238,33.609277 45.335325,35.446729 42.475392,36.117817 C 32.571169,41.54916 24.300051,40.492351 13.877202,38.546234 C 9.9221531,37.507207 3.8910043,35.805579 1.4345733,33.087074 C 0.4222635,30.518097 4.4769727,33.883431 7.3708169,34.83024 C 9.2361825,35.309657 3.5384466,31.914368 3.3528661,31.335761 z "
     style="fill:#c9c9c9;fill-opacity:1;stroke:#000000;stroke-width:1.08663774;stroke-linecap:round;stroke-linejoin:round;stroke-miterlimit:4;stroke-dasharray:none;stroke-opacity:1"
     id="path2178" />
  <path
     d="M 14.731553,35.485844 C 16.241883,35.911753 16.125234,37.233835 18.186452,37.386331 C 19.506001,37.196478 21.736907,37.426901 23.039256,37.072118 C 23.541895,36.445749 24.202408,35.820129 24.230667,34.962447 C 24.149311,34.477181 23.804229,33.911719 23.25088,33.931824 C 20.367375,34.148757 17.501565,34.651083 14.731553,35.485844 z "
     style="fill:#c9c9c9;fill-opacity:1;stroke:#000000;stroke-width:1.08663774;stroke-linecap:round;stroke-linejoin:round;stroke-miterlimit:4;stroke-dasharray:none;stroke-opacity:1"
     id="path2186" />
  <path
     d="M 11.580996,31.361599 C 11.580996,32.240279 10.868685,32.95259 9.9900055,32.95259 C 9.1113257,32.95259 8.399015,32.240279 8.399015,31.361599 C 8.399015,30.482919 9.1113257,29.770608 9.9900055,29.770608 C 10.868685,29.770608 11.580996,30.482919 11.580996,31.361599 z "
     style="fill:#f0ee92;fill-opacity:1;stroke:#000000;stroke-width:1;stroke-linecap:round;stroke-linejoin:round;stroke-miterlimit:4;stroke-dasharray:none;stroke-opacity:1"
     id="path2821" />
  <path
     d="M 10.25517,31.317406 C 10.255232,31.488304 10.116709,31.626876 9.945811,31.626876 C 9.7749132,31.626876 9.6363903,31.488304 9.6364518,31.317406 C 9.6363903,31.146508 9.7749132,31.007936 9.945811,31.007936 C 10.116709,31.007936 10.255232,31.146508 10.25517,31.317406 L 10.25517,31.317406 z "
     style="fill:#a4c7ee;fill-opacity:1;stroke:#000000;stroke-width:1;stroke-linecap:round;stroke-linejoin:round;stroke-miterlimit:4;stroke-dasharray:none;stroke-opacity:1"
     id="path2823" />
</svg>
