/* XPM */
static char * cutemaze_xpm[] = {
"32 32 99 2",
"  	c None",
". 	c #44383A",
"+ 	c #745F61",
"@ 	c #443937",
"# 	c #000000",
"$ 	c #1C1203",
"% 	c #7A4F0F",
"& 	c #4D330A",
"* 	c #050400",
"= 	c #382305",
"- 	c #A2680F",
"; 	c #9D650F",
"> 	c #1B1003",
", 	c #492E06",
"' 	c #603E09",
") 	c #402906",
"! 	c #322004",
"~ 	c #171106",
"{ 	c #5F3D08",
"] 	c #684309",
"^ 	c #4C3107",
"/ 	c #3F2907",
"( 	c #25231A",
"_ 	c #2E2C20",
": 	c #5D5740",
"< 	c #877F5E",
"[ 	c #9B926B",
"} 	c #56421C",
"| 	c #4E4023",
"1 	c #C0B484",
"2 	c #AAA074",
"3 	c #332F22",
"4 	c #5A563E",
"5 	c #C7BB89",
"6 	c #C1B585",
"7 	c #56411D",
"8 	c #514325",
"9 	c #C6BA88",
"0 	c #9A926B",
"a 	c #2C291D",
"b 	c #4F4A37",
"c 	c #554E38",
"d 	c #51401F",
"e 	c #935F0E",
"f 	c #85570F",
"g 	c #554C31",
"h 	c #BFB484",
"i 	c #ACA176",
"j 	c #583909",
"k 	c #915D0E",
"l 	c #2F291A",
"m 	c #333023",
"n 	c #84540C",
"o 	c #392605",
"p 	c #201304",
"q 	c #96600E",
"r 	c #1F1503",
"s 	c #9C640E",
"t 	c #432A06",
"u 	c #342C2C",
"v 	c #745F62",
"w 	c #211607",
"x 	c #A1680F",
"y 	c #3F2906",
"z 	c #3B3132",
"A 	c #3A3032",
"B 	c #887074",
"C 	c #3A2D24",
"D 	c #955F0E",
"E 	c #533F31",
"F 	c #C09EA3",
"G 	c #382E2F",
"H 	c #372D2D",
"I 	c #613F09",
"J 	c #9B640E",
"K 	c #564642",
"L 	c #332B2B",
"M 	c #281A04",
"N 	c #9A630E",
"O 	c #4A3007",
"P 	c #2D1D04",
"Q 	c #8F5C0D",
"R 	c #A0670F",
"S 	c #563708",
"T 	c #1E1304",
"U 	c #3E2C16",
"V 	c #2C1E0C",
"W 	c #7F696C",
"X 	c #7E676B",
"Y 	c #7A6568",
"Z 	c #735E61",
"` 	c #6A575A",
" .	c #615054",
"..	c #564749",
"+.	c #473A3D",
"@.	c #3D3234",
"#.	c #352C2E",
"$.	c #191516",
"%.	c #1E1919",
"                              .                                 ",
"                              + @                               ",
"                        # # $ % & * #                           ",
"                          # = - ; > #                           ",
"                            , ' ) !                             ",
"                          ~ { ] ^ / (                           ",
"                    _ : < [ } - - | 1 2 3                       ",
"                    4 5 5 6 7 - - 8 9 5 0                       ",
"                    a b c d e - - f g h i                       ",
"                        j - - - - - k l m                       ",
"                        n - - - - - - o                         ",
"                      p q - - - - - - )                         ",
"                      r s - - - - - - t                         ",
"                  u v w x - - - - - - y z A                     ",
"                    B C D - - - - - - E F G                     ",
"                      H I - - - - - J K L                       ",
"                        M N - - - - O                           ",
"                          P Q - R S                             ",
"                            T U V                               ",
"                              v                                 ",
"                              W                                 ",
"                              X                                 ",
"                              Y                                 ",
"                              Z                                 ",
"                              `                                 ",
"                               .                                ",
"                              ..                                ",
"                              +.                                ",
"                              @.                                ",
"                              #.                                ",
"                              $.                                ",
"                              %.                                "};
